<svg xmlns="http://www.w3.org/2000/svg" width="650.566" height="240" viewBox="0 0 650.566 240">
<path d="M87.364 46.512h104.341v109.27h51.318V0H87.363v46.512z" fill="#5a86dd"/>
<path d="M19.147 225.116V49.302H0V240h191.705v-14.884H19.147zM66.26 157.02c2.335 0 4.549-.53 6.64-1.59 2.09-1.062 3.761-2.484 5.015-4.267s1.931-3.664 2.037-5.637H74.38c-.171 1.91-1.042 3.503-2.612 4.775-1.57 1.275-3.407 1.91-5.508 1.91-3.036 0-5.371-1.07-7.007-3.214-1.633-2.145-2.45-5.2-2.45-9.172v-1.114c0-4.077.821-7.191 2.466-9.345 1.645-2.155 3.966-3.234 6.959-3.234 2.229 0 4.102.718 5.62 2.15 1.519 1.433 2.361 3.264 2.532 5.493h5.572c-.17-3.694-1.533-6.697-4.09-9.011-2.559-2.314-5.772-3.471-9.634-3.471-3.143 0-5.865.723-8.167 2.166-2.305 1.443-4.072 3.47-5.304 6.08-1.23 2.612-1.847 5.595-1.847 8.949v.988c0 5.435 1.387 9.718 4.156 12.848 2.772 3.13 6.5 4.696 11.194 4.696zm34.613 0c5.776 0 10.105-2.218 12.992-6.655l-3.598-2.802c-1.082 1.4-2.346 2.527-3.79 3.377-1.443.85-3.205 1.272-5.285 1.272-2.928 0-5.346-1.045-7.244-3.136-1.901-2.09-2.894-4.834-2.978-8.232h23.34v-2.453c0-5.496-1.24-9.722-3.724-12.672-2.485-2.95-5.965-4.426-10.445-4.426-2.739 0-5.28.758-7.627 2.276-2.345 1.519-4.17 3.619-5.477 6.306-1.305 2.685-1.958 5.738-1.958 9.155v1.082c0 5.137 1.465 9.241 4.393 12.308 2.932 3.068 6.731 4.6 11.401 4.6zm-6.719-28.293c1.613-1.73 3.61-2.595 5.987-2.595 2.462 0 4.417.824 5.86 2.469 1.443 1.645 2.25 3.963 2.42 6.958v.446H91.162c.38-3.121 1.38-5.546 2.992-7.278zm39.645 23.485c-2.42 0-4.368-.578-5.844-1.735s-2.267-2.722-2.373-4.698h-5.89c0 2.04.6 3.933 1.8 5.686 1.2 1.751 2.86 3.115 4.982 4.09 2.124.977 4.565 1.465 7.325 1.465 3.928 0 7.122-.927 9.584-2.785 2.464-1.857 3.694-4.326 3.694-7.405 0-1.846-.44-3.412-1.322-4.695-.88-1.284-2.234-2.385-4.06-3.298-1.825-.91-4.207-1.696-7.148-2.356-2.94-.657-4.973-1.347-6.097-2.07-1.126-.72-1.69-1.793-1.69-3.215 0-1.506.606-2.727 1.817-3.663 1.209-.934 2.886-1.401 5.031-1.401 2.08 0 3.805.584 5.175 1.753 1.368 1.166 2.054 2.558 2.054 4.17h5.923c0-3.14-1.216-5.721-3.647-7.737s-5.6-3.025-9.505-3.025c-3.715 0-6.768.976-9.154 2.929-2.39 1.954-3.584 4.341-3.584 7.164 0 1.7.42 3.164 1.258 4.396.838 1.232 2.133 2.293 3.886 3.184 1.75.892 4.117 1.655 7.1 2.293 2.982.636 5.073 1.397 6.275 2.277 1.196.88 1.797 2.116 1.797 3.71 0 1.506-.673 2.71-2.02 3.614-1.35.901-3.138 1.352-5.367 1.352zm27.354-30.283h-5.89v34.455h5.89v-34.455z"/>
</svg>